<svg xmlns="http://www.w3.org/2000/svg" xmlns:xlink="http://www.w3.org/1999/xlink" viewBox="0 0 351.6 242.8" width="500" xmlns:v="https://vecta.io/nano"><style><![CDATA[.V{fill:none}.W{stroke-miterlimit:10}.X{fill:#f0c8a9}.Y{stroke-width:1.81}.Z{stroke-linecap:round}.a{fill:#ababab}.b{fill:#363636}.c{fill:#e3b793}]]></style><defs><path id="A" d="M0 134.9h294.9v107.9H0z"/><path id="B" d="M269.3 44.6L264.7 63a1.56 1.56 0 0 0 1.9 1.9l8.1-1.8"/><path id="C" d="M298,51.1c0-3.5,2.9-6.4,6.4-6.4s6.4,2.9,6.4,6.4v9.2c0,3.5-2.9,6.4-6.4,6.4s-6.4-2.9-6.4-6.4"/></defs><clipPath id="D"><use xlink:href="#A"/></clipPath><g clip-path="url(#D)"><path d="M267.8,285.1c0-67.5-54.7-122.2-122.2-122.2S23.4,217.6,23.4,285.1H267.8z" fill="#dfdfdf"/><path d="M170.6 165.4c1.2.4 2.4.8 3.5 1.6 3.1 2.4 2.9 6.7 4.4 10.1 4.2 9.3 17.3 13.8 14.2 26.6-1.1 4.8-6.1 6.1-10 8.4-4.8 2.9-11.7 10.2-17.9 9.2-2.7-.4-5.1-3.1-7.7-4.1-3.5-1.4-7.4-1.7-11-1.8-6.7-.1-13.6-.2-19.6 3-4.2 2.2-8.6 5-12.4 7.8-4.1 3-6.3 7.4-11.7 7.9-3.7.4-6.7 0-8.7 3.7-2.1 4-1.3 9.2 2.4 11.8s6.7 1.6 10.8 2c4.4.4 5.1 3.8 7.5 7.2 7.1 10 17.3 9.4 27.6 13.1 4.7 1.7 6.5 0 4.8-4.8-1-2.8-6.7-7.6-5.6-10.4 2.4-6.5 13.2 7 15.8 9 5.6 4.3 10.8 8.6 17.7 3.8 6.7-4.7 19.1 2.8 13.1 10.6-1.6 2.1-3.8 3.6-6.1 4.9H250c2.3-2.2 4.6-4.6 7.2-6.1 3.2-1.9 6.9-1.3 10.4-1-3.2-55.7-43.8-101.4-97-112.5h0z" class="a"/><path d="M113.6 285.1c-6-5.3-11.9-10.6-19.5-13.7-9.2-3.7-15.4.4-22.9 5.5-3.9 2.6-8.2 5.3-12.2 8.3 0-.1 54.6-.1 54.6-.1z" fill="#cfcfcf"/><g class="a"><path d="M37.8 227.5c1.5-.9 2.8-1.8 3.6-2.5 4.3-3.7 7.6-8.8 11.7-12.8 7.1-7 12.8-16.1 21.7-20.9 4.9-2.7 15.5-19.3 21.7-13.4 2.8-.6 7.1.4 6.3 4.8-.9 4.6-5.7 5.3-9.2 6.6-5.2 1.9-22.3 13.8-16.1 20.5 1.9-.5 2.3-2.5 4-3.4 1.8-1 2.8-.4 4.7-.2 4.1.4 8.3-.2 12.4.2 4.5.5 9.8 1.1 14.3 0 3.6-.9 4.8-4 7.9-5.8 1.7-1 3.4-.2 5-.7 2-.7 3.7-2.3 5-3.9 2.2-2.8 6.8-7.6 6.2-11.2-.7-4.4-5.7-9.7-8.6-12.9-1.4-1.6-3.6-3.2-3.9-5.5-.1-.5 0-1 .2-1.6-37.8 6.4-69.5 30.2-86.9 62.7h0zm63.7-16.6c-.7-2.9-1.7-.1-2.6.8-.1.1-2.7 3.1-2.7 3-.2 2.9 7.1 2.1 9 1.9 2.8-4.9-4.9-2.1-3.7-6.6"/></g></g><g class="b"><path d="M110.2 116.2h.5v.1h-.5zm0-36h.5v.1h-.5zm0-18h.5v.1h-.5zM72.7 80.1c.2.1.4.2.6.2.4 0 .8-.2 1.1-.6 7.5-12.9 21.2-20.8 36.1-20.8 4.4 0 8.8.7 12.9 2.1.6.2 1.3-.1 1.5-.8s-.1-1.3-.8-1.5h0c-4.4-1.5-9.1-2.2-13.7-2.2-15.7 0-30.3 8.4-38.2 22-.3.5-.1 1.2.5 1.6h0m56.1-19.7c-.6-.3-1.3 0-1.6.6h0c-.3.6 0 1.3.6 1.6h0c7.9 3.6 14.4 9.6 18.8 17.1a1.1 1.1 0 0 0 1 .6c.2 0 .4-.1.6-.2.6-.3.8-1.1.4-1.7-4.6-7.9-11.5-14.2-19.8-18"/><path d="M79.2 64.9c.3 0 .6-.1.8-.3 8.1-6.8 18.2-10.8 28.8-11.2.7 0 1.2-.6 1.2-1.2s-.6-1.2-1.2-1.2h0a49.27 49.27 0 0 0-30.2 11.8c-.5.4-.6 1.2-.1 1.7.1.3.4.4.7.4m33.1-12.7a1.3 1.3 0 0 0 1.1 1.3h0c10.1.6 19.8 4.5 27.5 11.1.2.2.5.3.8.3.4 0 .7-.2.9-.4.4-.5.4-1.3-.1-1.7h0c-8.1-6.9-18.2-11-28.9-11.7a1.3 1.3 0 0 0-1.3 1.1"/><path d="M86.3 54c7.5-3.9 15.8-5.9 24.2-5.9s16.7 2 24.2 5.9c.2.1.4.1.6.1.4 0 .9-.2 1.1-.7.3-.6.1-1.3-.5-1.6h0c-7.8-4.1-16.5-6.2-25.3-6.2S93 47.8 85.1 51.9c-.6.3-.8 1-.5 1.6s1.1.8 1.7.5m9.6 96.9c-6.5-4.3-12.1-9.8-16.5-16.3-1.9-2.7-3.5-5.6-4.9-8.6-.3-.6-1-.9-1.6-.6s-.9 1-.6 1.6a79.95 79.95 0 0 0 5.1 9 62.88 62.88 0 0 0 17.2 16.9c.2.1.4.2.7.2.4 0 .8-.2 1-.5.3-.6.2-1.3-.4-1.7h0m44-12.8c-.5.1-.9.3-1.4.4-5.6 1.4-11.4 1.4-17.1.3-.7-.1-1.3.3-1.4.9s.3 1.3.9 1.4c2.7.6 5.5.8 8.3.8 3.3 0 6.6-.4 9.8-1.2.5-.1 1-.2 1.5-.4.6-.2 1-.9.8-1.5a1.08 1.08 0 0 0-1.4-.7m-23.4 1.8c.5 0 1-.3 1.1-.8.2-.6-.1-1.3-.8-1.5h0c-7-2.4-13.2-6.6-17.9-12.4-.4-.5-1.2-.6-1.7-.2h0c-.5.4-.6 1.2-.2 1.7 5 6.1 11.6 10.7 19 13.2h.5M89 99.7h0c-.7 0-1.2.6-1.2 1.2.1 7.7 2.3 15.2 6.4 21.7.2.3.6.6 1 .6.2 0 .4-.1.7-.2.6-.4.7-1.1.4-1.7-3.9-6.1-6-13.2-6.1-20.4 0-.7-.5-1.2-1.2-1.2m40.2 2.3a1.54 1.54 0 0 1-1.5-1.5c0-7.2-4.5-13.7-11.3-16.2-.6-.2-1.3.1-1.6.7h0c-.2.6.1 1.3.7 1.6h0c5.8 2.2 9.7 7.7 9.7 13.9a3.84 3.84 0 0 0 3.9 3.9c2.1 0 3.9-1.7 3.9-3.9 0-12.5-10.2-22.7-22.7-22.7-10.7 0-20 7.6-22.2 18-.1.7.3 1.3.9 1.4s1.3-.3 1.4-.9h0c2-9.4 10.2-16.1 19.8-16.1 11.2 0 20.2 9.1 20.2 20.2.3.9-.4 1.6-1.2 1.6m-18.7 26.4c-9.3-6.2-14.9-16.7-14.9-27.9 0-8.2 6.7-14.9 14.9-14.9h.7c.7 0 1.2-.5 1.3-1.2s-.5-1.2-1.2-1.3h0-.8a17.31 17.31 0 0 0-17.3 17.3c0 12 6 23.3 16 30 .2.1.4.2.7.2.4 0 .8-.2 1-.5.3-.5.2-1.2-.4-1.7h0m33.6 2.3c-2.5 1.2-5.2 2.2-7.9 2.8-2.3.5-4.6.7-7 .7-5.1 0-10.1-1.1-14.7-3.4-.6-.3-1.3 0-1.6.6h0c-.3.6 0 1.3.6 1.6h0c4.9 2.4 10.3 3.6 15.8 3.6 2.5 0 5-.3 7.5-.8 2.9-.6 5.8-1.6 8.5-3 .6-.3.8-1 .6-1.6h0c-.4-.6-1.1-.8-1.8-.5h0M105.8 141c.2.1.4.2.6.2a1.1 1.1 0 0 0 1-.6c.3-.6.1-1.3-.4-1.6h0c-7.8-4.5-14.1-11.3-17.9-19.4-.3-.6-1-.9-1.6-.6s-.9 1-.6 1.6h0c4.1 8.5 10.7 15.6 18.9 20.4m-19.6-24.3c.1 0 .3 0 .4-.1.6-.2 1-.9.7-1.5h0c-1.6-4.7-2.5-9.7-2.5-14.6 0-6.3 2.3-12.4 6.6-17.1.4-.5.4-1.3-.1-1.7s-1.3-.4-1.7.1c-4.6 5.1-7.2 11.8-7.2 18.7 0 5.2.9 10.5 2.6 15.4a1.3 1.3 0 0 0 1.2.8m6.9-36.6c.4.5 1.2.6 1.7.2 4.5-3.5 10-5.4 15.7-5.4 8.4 0 16.3 4.1 21.1 11.1.2.3.6.5 1 .5.2 0 .5-.1.7-.2.6-.4.7-1.1.3-1.7-5.2-7.6-13.8-12.1-23.1-12.1-6.2 0-12.3 2.1-17.2 5.9-.5.4-.6 1.1-.2 1.7m43 24.7c.1.1.3.1.5.1.5 0 .9-.3 1.1-.7.5-1.2.8-2.4.8-3.7 0-4-.8-7.9-2.5-11.5-.3-.6-1-.9-1.6-.6s-.9 1-.6 1.6h0c1.5 3.3 2.3 6.9 2.3 10.5 0 .9-.2 1.9-.6 2.7-.3.6 0 1.4.6 1.6h0M110.5 91c5.3 0 9.5 4.3 9.5 9.5 0 5.1 4.2 9.2 9.2 9.2 1.8 0 3.5-.5 4.9-1.4.6-.4.7-1.1.4-1.7h0c-.4-.6-1.1-.7-1.7-.4-1.1.7-2.4 1.1-3.7 1.1a6.81 6.81 0 0 1-6.8-6.8c0-6.6-5.3-11.9-11.9-11.9s-11.9 5.3-11.9 11.9c0 1.8.2 3.5.4 5.2.1.7.7 1.1 1.4 1h0c.7-.1 1.1-.7 1-1.4-.3-1.6-.4-3.2-.4-4.8 0-5.3 4.3-9.5 9.6-9.5m36 31.9L145 124c-4.7 3.2-10.2 4.9-15.8 4.8-12 0-22.8-7.6-26.7-19-.2-.6-.9-1-1.5-.7s-1 .9-.7 1.5c4.3 12.3 15.9 20.6 29 20.6 6.1 0 12.1-1.8 17.2-5.2.5-.4 1.1-.8 1.6-1.2s.6-1.2.2-1.7h0c-.5-.5-1.3-.6-1.8-.2h0m2.6-19.8c.1-.7-.4-1.3-1-1.3-.7-.1-1.3.4-1.4 1-1.1 8.8-8.6 15.3-17.4 15.3-9.7 0-17.6-7.9-17.6-17.6 0-.7-.5-1.2-1.2-1.2s-1.2.5-1.2 1.2c0 11 8.9 20 20 20 10 0 18.4-7.5 19.8-17.4"/><path d="M110.5 61.8a39.16 39.16 0 0 0-11.3 1.7c-.6.2-1 .9-.8 1.5s.9 1 1.5.8c3.4-1.1 7-1.6 10.6-1.6 19.2 0 35 14.9 36.3 34 0 .6.6 1.1 1.2 1.1h.1c.7 0 1.2-.6 1.1-1.3h0c-1.4-20.4-18.3-36.2-38.7-36.2M72.9 99.3h0a1.3 1.3 0 0 0 1.3-1.1c.9-13.4 9-25.2 21.3-30.8.6-.3.9-1 .6-1.6s-1-.9-1.6-.6h0c-13 5.9-21.8 18.5-22.7 32.8a1.3 1.3 0 0 0 1.1 1.3h0m10.6 35.2c.2 0 .5-.1.7-.2.5-.4.7-1.1.3-1.7h0c-6.3-8.7-9.9-19.1-10.3-29.8 0-.7-.6-1.2-1.3-1.2s-1.2.6-1.2 1.3c.5 11.2 4.2 22 10.8 31.1.3.4.6.6 1 .5m28.7 18.4c-9.6-3.1-18.2-8.9-24.8-16.6-.4-.5-1.2-.6-1.7-.1h0c-.5.4-.6 1.2-.1 1.7h0c6.9 8 15.8 14 25.9 17.3.1 0 .2.1.4.1a1.3 1.3 0 0 0 1.2-.8c.1-.7-.3-1.4-.9-1.6m36.6-38.2c-.5-.4-1.3-.3-1.7.2h0c-1.6 2-3.6 3.8-5.8 5.1-2.8 1.7-6 2.8-9.3 3.2-.7.1-1.1.7-1.1 1.3h0c.1.6.6 1.1 1.2 1.1h.1c3.6-.4 7.1-1.7 10.2-3.6 2.5-1.5 4.6-3.4 6.4-5.7.6-.4.5-1.2 0-1.6h0m-21.7 11.1h0a1.3 1.3 0 0 0 1.3-1.1c.1-.7-.4-1.2-1.1-1.3-11.9-1-21-10.9-21-22.8a4.23 4.23 0 0 1 4.2-4.2 4.23 4.23 0 0 1 4.2 4.2 14.93 14.93 0 0 0 2.5 8.2c.4.6 1.1.7 1.7.3s.7-1.1.3-1.7h0c-1.4-2-2.1-4.4-2.1-6.8 0-3.6-2.9-6.6-6.6-6.6s-6.6 2.9-6.6 6.6c0 6.4 2.4 12.5 6.8 17.2 4.2 4.6 10.1 7.4 16.4 8m-4.9-15.4c-.5-.4-1.3-.3-1.7.3-.4.5-.3 1.3.3 1.7 2.5 1.8 5.4 2.7 8.5 2.7 8.1 0 14.6-6.6 14.6-14.6 0-10.6-5-20.5-13.5-26.8-.5-.4-1.3-.3-1.7.2s-.3 1.3.2 1.7c7.9 5.9 12.5 15.1 12.5 24.9 0 6.7-5.5 12.2-12.2 12.2-2.5 0-5-.8-7-2.3m2.8-37.2c.2.1.4.1.6.1.4 0 .9-.2 1.1-.6.3-.6.1-1.3-.5-1.6h0c-4.8-2.6-10.2-3.9-15.7-3.9-.7 0-1.2.5-1.2 1.2s.5 1.2 1.2 1.2c5.1-.1 10 1.2 14.5 3.6m-19.7-5.7c-6 .9-11.7 3.5-16.3 7.5-4.6 3.9-8.1 9-10.1 14.7-.2.6.1 1.3.8 1.5h0c.1 0 .3.1.4.1.5 0 1-.3 1.1-.8 3.7-10.9 13.2-18.8 24.5-20.5.7-.1 1.1-.7 1-1.4h0c-.1-.7-.7-1.2-1.4-1.1m22 82.7c-1 0-1.9-.1-2.9-.2-25.5-2.4-45-23.9-44.9-49.5 0-1.8.2-3.6.5-5.4.1-.7-.3-1.3-1-1.4h0c-.7-.1-1.3.3-1.4 1h0c-.3 1.9-.5 3.9-.5 5.8 0 13 4.9 25.6 13.7 35.1 8.7 9.5 20.6 15.5 33.4 16.8 1 .1 2 .2 3 .2h.1c.7 0 1.2-.5 1.2-1.2 0-.6-.6-1.2-1.2-1.2"/></g><ellipse cx="209.6" cy="100.2" rx="87.1" ry="87.7" fill="#f4f4f4"/><circle cx="210.1" cy="99.1" r="86.1" stroke="#363636" stroke-width="13.49" class="V"/><defs><path id="E" d="M239.7 168.1h69.5v47.7h-69.5z"/></defs><clipPath id="F"><use xlink:href="#E"/></clipPath><g clip-path="url(#F)"><path d="M252.711 181.826l14.676-9.534 8.444 12.998-14.675 9.534z" class="b"/><path d="M254.459 195.125l23.481-15.254 25.224 38.827-23.481 15.254z" fill="#acacac"/><path d="M266.455 187.23l11.405-7.409 25.224 38.827-11.405 7.409z" fill="#bbb"/></g><g class="b"><path d="M286.6 117.7h-.2c-7.2-.4-14.6-3.7-21.5-9.6-4.4-3.9-8.5-8.1-12.3-12.6l-3.3-3.7c-13-14.4-27.1-25.7-42.1-33.5-16.5-8.6-35.6-16.9-51.8-13.2-1.5.3-3-.6-3.3-2.1h0c-.3-1.5.6-3 2.1-3.3 17.9-4.1 38.2 4.7 55.6 13.7 15.6 8.1 30.2 19.8 43.7 34.7 1.1 1.2 2.2 2.5 3.3 3.8a110.51 110.51 0 0 0 11.7 12c4.2 3.5 10.8 7.8 18.3 8.3 1.5.1 2.7 1.4 2.6 2.9-.1 1.4-1.3 2.6-2.8 2.6h0zm.7-28.1c-.5 0-1-.1-1.4-.4-13.4-8.1-25.6-18.6-37.4-28.7-18.2-15.7-37.1-31.9-60.2-39-1.5-.5-2.3-2-1.8-3.5h0c.4-1.5 2-2.3 3.5-1.8h0c24.3 7.5 43.6 24.1 62.2 40.1 11.7 10 23.7 20.3 36.7 28.2 1.3.8 1.7 2.5 1 3.8-.7.8-1.6 1.3-2.6 1.3h0zm3.1 16.8c-.3 0-.6-.1-.9-.2-8.8-3.2-16.8-8.2-23.5-14.8-1.1-1.1-1.1-2.8 0-3.9h0c1.1-1.1 2.9-1.1 3.9 0h0a58.93 58.93 0 0 0 21.5 13.5c1.5.5 2.2 2.1 1.7 3.6-.5 1-1.5 1.8-2.7 1.8h0zM189 89.6c-.7 0-1.4-.2-1.9-.7-1.9-1.7-6.7-2.5-10.2-3.1-.9-.2-1.8-.3-2.6-.5a88.42 88.42 0 0 0-14.5-1.8c-10-.5-20 .7-29.5 3.5-1.5.4-3-.4-3.5-1.8h0c-.4-1.5.4-3 1.8-3.5h0c10.2-3.1 20.8-4.3 31.4-3.8 5.2.2 10.3.9 15.4 1.9.7.1 1.5.3 2.4.4 4.4.8 9.8 1.7 12.9 4.5 1.1 1 1.2 2.8.2 3.9h0c-.4.6-1.1 1-1.9 1h0zm86.8 55.8h-.3c-7.5-.8-15.1-4.6-21.9-11.1-4.6-4.6-8.8-9.6-12.5-14.9-.8-1.1-1.7-2.2-2.5-3.3-10.5-13.8-20.4-23.6-30.9-30.7-10.4-7.1-22.2-11.9-34.6-14.3-13.1-2.4-25.7-1.5-36.6 2.7-1.4.6-3.1-.2-3.6-1.6h0c-.6-1.4.2-3.1 1.6-3.6h0c11.9-4.5 25.6-5.5 39.6-3 13.1 2.4 25.6 7.6 36.7 15.1 11 7.5 21.3 17.7 32.2 32 .9 1.1 1.7 2.2 2.6 3.4 3.6 5 7.6 9.8 11.9 14.2 4.1 3.9 10.8 8.8 18.7 9.6 1.5.2 2.6 1.5 2.5 3.1h0c-.3 1.4-1.5 2.4-2.9 2.4h0zm-15.6 25.5c-.6 0-1.3-.2-1.8-.6-10.1-8.2-18.2-18.5-26.1-28.5L222 129c-15.8-18.5-30.8-27.7-46-28.1-1.5-.1-2.8-1.3-2.7-2.9h0c.1-1.5 1.3-2.8 2.9-2.7 16.8.5 33.2 10.3 50 30.1 3.6 4.2 7.1 8.7 10.5 13 7.7 9.7 15.6 19.8 25.2 27.6 1.2 1 1.4 2.7.4 3.9h0c-.5.7-1.3 1.1-2.1 1h0zm-12.2 8c-.6 0-1.2-.2-1.7-.6-8.6-6.5-13.8-15.2-18.8-23.6-2.8-4.9-5.9-9.7-9.4-14.2-9.1-11.4-21.2-20-34.9-24.9-15.7-5.6-33-5.8-51.4-.6-1.5.4-3-.4-3.4-1.9s.4-3 1.9-3.4c19.6-5.5 38-5.3 54.8.7a84.76 84.76 0 0 1 37.4 26.7c3.6 4.7 6.9 9.7 9.8 14.8 5 8.3 9.7 16.2 17.4 22 1.2.9 1.5 2.7.6 3.9-.7.7-1.5 1.1-2.3 1.1h0zm-20.4 5.3c-1.2 0-2.3-.8-2.7-2-4.2-13.9-12.8-33.4-29.8-46.7-15.5-12.2-35.4-16.4-51.9-11.2-2.3.7-5 1.8-6.6 3.8-.9 1.2-2.7 1.5-3.9.6s-1.5-2.7-.6-3.9h0c2.5-3.3 6.3-4.9 9.4-5.8 18.3-5.8 40.2-1.2 57.1 12.1 18.1 14.3 27.2 34.8 31.7 49.5.4 1.5-.4 3-1.9 3.5h0c-.3.1-.6.1-.8.1h0zm-90.2-45.1c-1.1 0-2.2-.7-2.6-1.8-.6-1.4.1-3.1 1.6-3.6 7-2.8 14.6-3.9 22.1-3.1 1.5.2 2.6 1.5 2.5 3.1h0c-.2 1.5-1.5 2.6-3.1 2.5h0c-6.6-.7-13.3.2-19.5 2.7-.3.2-.6.2-1 .2h0zm66 47.2c-1.3 0-2.4-.9-2.7-2.2-2.6-12.5-9.7-23.4-19.2-29.9-10.2-6.9-23.6-8.5-34.1-4.2-1.4.6-3.1-.1-3.6-1.5h0c-.6-1.4.1-3.1 1.5-3.6h0c12.4-5.1 27.5-3.3 39.4 4.7 10.8 7.3 18.6 19.4 21.6 33.3.3 1.5-.6 3-2.1 3.3-.4 0-.6 0-.8.1h0zm11.7.5c-1.4 0-2.6-1-2.8-2.4-1.2-7.8-4-15.2-8.4-21.7-.9-1.3-.5-3 .8-3.9h0c1.3-.9 3-.5 3.9.8 4.8 7.2 8 15.4 9.3 24 .2 1.5-.8 2.9-2.4 3.2h0-.4 0zm-28.1-4.9c-1.2 0-2.3-.8-2.7-2-3.1-9.9-15.5-22.6-27.3-19.3-1.5.4-3-.4-3.4-1.9h0c-.4-1.5.4-3 1.9-3.4h0c6.9-2 14.5-.1 21.4 5.2 5.9 4.5 10.3 10.7 12.7 17.7.5 1.5-.4 3-1.8 3.5-.2.2-.5.2-.8.2h0zM176.8 25.7l1.3.2v.6h0c.5-.3 1.1-.5 1.7-.4 1.3.2 2 1.4 1.7 3.1-.3 1.9-1.6 2.8-2.8 2.6-.5-.1-.9-.4-1.2-.8l-.1.9-.2 1.6-1.6-.2c0-.1 1.2-7.6 1.2-7.6zm3.1 3.3c.1-1-.1-1.5-.7-1.6a1.69 1.69 0 0 0-1 .3l-.4 2.2c.2.3.5.4.8.5.6.1 1.1-.3 1.3-1.4h0zm2.2 1.7c.3-1.1 1.4-1.5 3.5-1.2.1-.4-.1-.8-.5-1h-.1c-.5-.1-1.1 0-1.5.1l-.3-1.2c.8-.3 1.6-.3 2.5-.1 1.4.4 1.9 1.3 1.5 3l-.8 3.1-1.4-.4v-.6h0c-.5.3-1.1.4-1.7.3-.9-.2-1.4-1-1.2-1.9v-.1h0zm3 .7l.2-.9c-1.2-.1-1.6.1-1.7.5-.1.3.1.6.5.7.4 0 .8-.1 1-.3zm2.1 1.6l1-.7c.3.5.7.8 1.2 1s.7 0 .8-.2c.1-.3-.4-.7-.8-1.1-.7-.4-1-1.2-.9-2 .4-.9 1.4-1.4 2.4-1 .1 0 .1 0 .2.1.7.2 1.2.7 1.6 1.3l-1 .7c-.2-.4-.6-.6-.9-.8-.4-.1-.6 0-.7.2-.1.3.3.6.8 1 .7.4 1.1 1.2.9 2.1-.3 1-1.3 1.4-2.7 1-.8-.5-1.4-1-1.9-1.6h0z"/><path d="M191.8 34.5l1.1-.7c.2.5.6.8 1.1 1.1.4.2.7.1.8-.2s-.3-.7-.8-1.1c-.7-.5-1-1.3-.7-2.1.4-.9 1.5-1.3 2.4-.9.1 0 .1 0 .2.1.6.3 1.2.8 1.5 1.4l-1.1.6a1.96 1.96 0 0 0-.9-.9c-.4-.2-.6-.1-.8.2-.1.3.3.7.8 1.1.7.5 1 1.3.8 2.1-.4.9-1.4 1.3-2.8.8-.6-.3-1.2-.8-1.6-1.5h0zm7.1-2.3l1.2.6-.1.5h0c.6-.2 1.2-.2 1.7.1 1.2.6 1.5 1.9.7 3.5-.8 1.7-2.3 2.2-3.4 1.7-.4-.2-.8-.6-.9-1.1l-.3.8-.7 1.5-1.5-.7 3.3-6.9h0zm2 4c.4-.9.4-1.5-.2-1.8-.3-.2-.7-.1-1.1 0l-1 2c.1.3.4.5.6.7.6.3 1.2.1 1.7-.9h0 0zm2.3 1.2c.6-1.4 2.2-1.9 3.6-1.3.1 0 .1 0 .2.1 1.3.7 1.8 2.4 1 3.7 0 0-.1.1-.1.2-.6 1.4-2.2 1.9-3.6 1.3-.1 0-.1 0-.2-.1-1.3-.7-1.8-2.4-1-3.7 0-.1.1-.2.1-.2h0zm3.2 1.8c.5-.8.5-1.5-.1-1.9s-1.2 0-1.7.9-.5 1.5.1 1.9 1.3-.1 1.7-.9h0 0zm4-1l1.1.7-.4.9h0c.6-.4 1.3-.4 1.9-.1.2.1.4.3.5.4l-1 1.1c-.1-.2-.3-.3-.5-.4-.5-.3-1.1-.2-1.6.2l-1.7 2.7-1.4-.9 3.1-4.6h0z"/><path d="M212.5 43.7l1.2-1.9-.6-.4.7-1 .7.4 1-1.1 1.1.8-.8 1.2 1.1.7-.7 1.1-1.1-.7-1.2 1.8c-.4.5-.2.9.1 1.1.1.1.3.2.5.2l-.4 1.1c-.4-.1-.8-.3-1.1-.5-1.3-.7-1.2-1.7-.5-2.8h0zm7.2.7l1.3 1-3.2 4.5-1.3-1 3.2-4.5zm.9-1.4c.3-.4.8-.5 1.2-.2h.1c.4.2.5.8.3 1.2-.3.4-.8.5-1.2.2h-.1c-.4-.2-.6-.7-.3-1.2h0 0zm1.7 3.3l1.1.8-.3.6h0c.7-.1 1.4 0 1.9.4.9.7.8 1.7 0 2.8l-2.1 2.7-1.3-1 2-2.6c.5-.6.5-1 .1-1.2-.3-.2-.8-.3-1.1-.2l-2.3 3-1.3-1 3.3-4.3h0zm5.5 3.9c.5-.9 1.7-1.2 2.6-.6l.3.3c.3.2.5.5.7.8l-1 .8c-.1-.2-.2-.3-.4-.5-.3-.2-.6-.2-1 .2l-3.7 4.6-1.3-1 3.8-4.6h0zm-.8-.2l.7.5 2 1.6-.8 1-2.6-2.1.7-1zm1.3 4.5c.9-1.2 2.6-1.5 3.8-.6.1 0 .1.1.1.1 1.1 1 1.3 2.7.3 3.8l-.1.1c-.9 1.2-2.6 1.5-3.8.6-.1 0-.1-.1-.1-.1-1.1-1-1.3-2.7-.3-3.8l.1-.1h0zm2.8 2.4c.6-.7.8-1.4.2-1.9s-1.2-.2-1.8.6-.8 1.4-.2 1.9 1.2.1 1.8-.6zm4-.3l1 .9-.5.8h0c.6-.3 1.4-.2 1.9.2.2.1.3.3.4.5l-1.1.9c-.1-.2-.2-.3-.4-.5-.5-.3-1.1-.3-1.6 0l-2.1 2.4-1.2-1.1 3.6-4.1h0zm3.4 3l1 .9-.4.6h0c.6-.1 1.3.1 1.8.5s.7 1.1.5 1.7c.7-.1 1.4 0 1.9.5.9.8.7 1.8-.2 2.8l-2.3 2.6-1.2-1.1 2.1-2.4c.5-.6.5-.9.2-1.2a1.39 1.39 0 0 0-1.1-.2l-2.5 2.8-1.2-1.1 2.1-2.4c.5-.6.5-.9.2-1.2-.3-.2-.7-.3-1.1-.2l-2.5 2.8-1.2-1.1 3.9-4.3h0zm4.3 9.1c.8-.9 1.9-.7 3.7.5.3-.3.3-.8 0-1.1l-.1-.1c-.4-.3-.9-.5-1.4-.6l.3-1.2c.8.1 1.6.5 2.3 1 1.1.9 1.1 2.1 0 3.3l-2.1 2.4-1-.9.3-.5h0c-.6 0-1.2-.2-1.7-.5-.7-.6-.8-1.6-.2-2.2-.2 0-.1 0-.1-.1h0zm2.4 2l.6-.7c-1-.7-1.5-.7-1.8-.3-.2.3-.2.6.1.8.4.2.7.3 1.1.2h0 0z"/><path d="M247.7 72.4l1.5-1.7-.6-.5.8-.9.7.5 1.1-1 1 .9-1 1.1 1 .9-.8 1-1-.9-1.4 1.7c-.4.5-.4.8 0 1.1.1.1.3.2.5.3l-.6 1.1c-.4-.2-.7-.4-1.1-.7-1.1-1-.9-2-.1-2.9h0zm5.3-.1l1.2 1.1-3.6 4.2-1.2-1.1 3.6-4.2zm1-1.3c.3-.4.9-.4 1.2-.1h.1c.4.3.5.8.2 1.2v.1c-.3.4-.9.4-1.2.1-.5-.4-.6-.9-.3-1.3h0zm-.7 5.2c.9-1.2 2.6-1.5 3.8-.6l.1.1c1.1.9 1.3 2.7.4 3.8l-.1.1c-.9 1.2-2.6 1.5-3.8.6-.1 0-.1-.1-.1-.1-1.1-.9-1.3-2.7-.4-3.8 0-.1 0-.1.1-.1h0zm2.8 2.3c.6-.7.7-1.4.2-1.9s-1.2-.2-1.8.6c-.6.7-.7 1.4-.2 1.9s1.2.1 1.8-.6h0zm3.8-.5l1.1.8-.3.6h0c.7-.1 1.4 0 1.9.4 1 .7.8 1.7 0 2.8l-2.1 2.7-1.3-1 2-2.6c.5-.6.5-1 .1-1.2-.3-.2-.8-.3-1.1-.2l-2.3 2.9-1.3-1 3.3-4.2h0zm-111-21.2c-.1-1.8.9-3 2.1-3 .5 0 1 .1 1.4.5l-.1-.8-.1-1.9 1.6-.1.5 7.8-1.3.1-.1-.5h0c-.4.4-.9.7-1.4.8-1.5-.1-2.4-1.1-2.6-2.9h0zm3.7.8l-.1-2.3c-.3-.2-.6-.3-.9-.3-.5 0-1 .6-.9 1.6.1 1.1.5 1.5 1.1 1.5.3 0 .6-.2.8-.5h0 0zm2.8 0c0-1.2.9-1.8 3.1-2.1 0-.4-.3-.8-.7-.8h-.1c-.5 0-1 .2-1.4.5l-.6-1.1c.7-.5 1.5-.7 2.4-.8 1.4 0 2.2.8 2.2 2.5l.1 3.2h-1.3l-.1-.6h0c-.4.4-1 .7-1.6.7-.9 0-1.6-.6-1.7-1.5-.3.1-.3 0-.3 0h0zm3.1-.1v-1c-1.2.2-1.5.5-1.5.9s.2.5.6.5c.3 0 .7-.2.9-.4h0 0zm3-.5l.1-2.2h-.8v-1.2h.9l.2-1.5h1.4v1.5h1.3v1.3h-1.3l-.1 2.2c0 .6.3.9.7.9.2 0 .4 0 .5-.1l.2 1.2c-.4.1-.8.2-1.2.2-1.4-.1-1.9-1-1.9-2.3h0zm3.6-.6a2.69 2.69 0 0 1 2.7-2.7h.1c1.6.1 2.3 1.3 2.2 2.8 0 .2-.1.5-.1.7l-3.3-.2c0 .7.6 1.3 1.4 1.3.4 0 .8-.1 1.2-.3l.5 1c-.6.4-1.3.5-2 .5-1.5 0-2.7-1.3-2.6-2.8-.1-.1-.1-.2-.1-.3h0zm3.6-.4c0-.6-.2-1.1-.9-1.1-.6 0-1.1.4-1.1 1l2 .1h0zm4.4 1c.1-1.5 1.4-2.6 2.9-2.5h.2c1.5.2 2.5 1.6 2.3 3.1v.2c-.1 1.5-1.4 2.6-2.9 2.5h-.2c-1.5-.2-2.5-1.6-2.3-3.1V57h0zm3.7.5c.1-1-.1-1.6-.8-1.7s-1.1.5-1.2 1.4.1 1.6.8 1.7 1.1-.5 1.2-1.4h0 0zm3.6-2.5a1.97 1.97 0 0 1 2-1.8c.1 0 .3 0 .4.1.4.1.7.2 1.1.4l-.5 1.1c-.2-.1-.4-.2-.5-.2-.4-.1-.7.1-.8.7L181 61l-1.6-.3 1-5.7h0zm-.8.2l.8.1 2.5.5-.2 1.3-3.3-.6.2-1.3h0zm6.8 6.4h0l-.3.5-1.2-.3 2-7.6 1.6.4-.5 1.8-.2.8c.5-.3 1-.3 1.6-.2 1.3.3 1.8 1.6 1.4 3.3-.5 1.8-1.8 2.6-3 2.3-.7-.1-1.1-.5-1.4-1h0zm2.6-1.7c.2-1 .1-1.5-.6-1.7-.4-.1-.8 0-1 .2l-.6 2.2c.2.3.4.5.8.6.6.2 1.1-.2 1.4-1.3zm3.6-1.7l1.6.5-1.6 5.3-1.6-.5 1.6-5.3h0zm.3-1.7c.1-.5.6-.7 1.1-.6h.1c.5.1.8.6.7 1v.1c-.1.5-.6.7-1.1.6h-.1c-.5-.1-.8-.5-.7-1.1 0 .1 0 0 0 0h0 0zm2.7 2.6l1.3.4-.2 1h0c.5-.5 1.2-.7 1.9-.5l.6.3-.7 1.2c-.2-.1-.3-.2-.5-.3-.6-.2-1.2.1-1.5.6l-1.1 3-1.6-.5 1.8-5.2h0zm3.3 4.9l.8-2.1-.7-.3.5-1.1.8.3.7-1.3 1.3.5-.6 1.4 1.2.5-.5 1.2-1.2-.5-.8 2.1c-.2.6-.1.9.3 1.1.2.1.4.1.5.1L201 67c-.4 0-.8-.1-1.2-.3-1.2-.5-1.4-1.5-.9-2.7h0zm6.2-3.7l1.5.7-.8 1.7-.5.9c.6-.2 1.3-.2 1.9 0 1.1.5 1.2 1.5.6 2.8l-1.4 3.1-1.5-.7 1.4-2.9c.3-.7.2-1-.2-1.2s-.8-.1-1.2.1l-1.6 3.4-1.5-.7 3.3-7.2h0zm-74 39.9l-1.2-6 1.6-.3 1.2 6.1c.1.3.2.4.4.4.1 0 .1 0 .2-.1l.4 1.2c-.2.2-.5.2-.8.3-1.1.1-1.6-.5-1.8-1.6h0zm2.6-1.6c-.4-1.4.5-2.9 2-3.3h.2c1.5-.2 2.9.8 3.1 2.2v.2c.4 1.4-.5 2.9-2 3.3h-.2c-1.5.2-2.9-.8-3.1-2.2.1-.1 0-.1 0-.2h0zm3.7-.6c-.2-.9-.6-1.5-1.3-1.4s-.9.8-.7 1.7.6 1.5 1.3 1.4.8-.8.7-1.7h0zm2.4-.4c-.3-1.5.7-3 2.2-3.2h.2c.6-.1 1.2 0 1.7.4l-.6 1.2c-.2-.2-.5-.2-.8-.2-.8.1-1.2.8-1.1 1.7s.7 1.5 1.4 1.4c.4-.1.7-.3.9-.5l.8 1c-.4.5-1.1.8-1.7.9a2.76 2.76 0 0 1-3.1-2.2c.1-.3.1-.5.1-.5h0zm5.3.5c-.1-1.2.7-1.9 2.9-2.3 0-.4-.4-.8-.8-.7h-.1c-.5.1-1 .3-1.4.7l-.7-1c.6-.5 1.4-.9 2.3-1 1.4-.2 2.3.6 2.4 2.3l.3 3.1-1.3.1-.2-.6h0a2.37 2.37 0 0 1-1.5.9c-.9.1-1.7-.5-1.8-1.3l-.1-.2h0zm3.1-.4l-.1-1c-1.1.3-1.5.7-1.4 1.1 0 .3.3.5.7.5.3-.1.6-.3.8-.6h0 0zm3-.7l-.2-2.2-.8.1-.1-1.2.8-.1.1-1.5 1.4-.1.1 1.5 1.3-.1.1 1.3-1.3.1.2 2.2c0 .6.4.9.8.8.2 0 .4-.1.5-.1l.3 1.2c-.4.2-.8.3-1.2.3-1.3-.1-1.9-1-2-2.2zm3.7-5.5c0-.5.4-.9.9-.9h.1c.5-.1.9.3 1 .8v.1c0 .5-.4.9-.9.9h-.1c-.5 0-.9-.3-1-.9 0 .1 0 0 0 0h0zm.2 1.7l1.6-.1.2 5.5-1.6.1-.2-5.5zm2.9 2.6c-.1-1.5 1-2.8 2.5-2.9h.2a2.69 2.69 0 0 1 2.7 2.7v.2c.1 1.5-1 2.8-2.5 2.9h-.2A2.69 2.69 0 0 1 158 96v-.2zm3.7 0c0-1-.3-1.6-1-1.6s-1 .6-1 1.6c0 .9.3 1.6 1 1.6s1-.6 1-1.6h0 0zm3.1-2.7l1.3.1.1.7h0c.5-.5 1.1-.7 1.8-.7 1.2.1 1.7 1 1.6 2.3l-.2 3.4-1.6-.1.2-3.2c.1-.8-.1-1.1-.6-1.1-.4 0-.8.2-1.1.5l-.2 3.7-1.6-.1.3-5.5h0zm33.8-4.3l1.2.6-.2.5h0c.6-.2 1.2-.1 1.7.2 1.2.6 1.4 2 .5 3.5-.9 1.7-2.4 2.1-3.5 1.5-.4-.2-.7-.7-.9-1.1l-.4.8-.8 1.4-1.4-.8 3.8-6.6h0zm1.9 4.1c.5-.9.4-1.4-.1-1.8-.3-.2-.7-.2-1.1 0l-1.1 2c.1.3.3.6.6.7.5.3 1.1.1 1.7-.9h0 0zm5.1-2.8l1.4.9-1 1.6-.6.8c.6-.2 1.3-.1 1.9.3 1 .7 1 1.6.2 2.8l-1.8 2.9-1.4-.9 1.7-2.7c.4-.7.4-1 0-1.2s-.8-.2-1.1-.1l-2 3.2-1.4-.9 4.1-6.7zm2.4 7.5c.8-1.3 2.5-1.6 3.7-.8.1 0 .1.1.1.1 1.2.9 1.4 2.6.6 3.8 0 .1-.1.1-.1.1-.8 1.3-2.5 1.6-3.7.8-.1 0-.1-.1-.1-.1-1.2-.9-1.4-2.6-.6-3.8 0 0 .1 0 .1-.1h0zm3 2.2c.6-.8.7-1.5.1-1.9s-1.2-.1-1.8.7-.7 1.5-.1 1.9 1.2.1 1.8-.7zm4.1-.3l1 .9-.4.6h0c.7-.1 1.4.1 1.9.5.9.8.8 1.8-.1 2.8l-2.2 2.6-1.2-1.1 2.1-2.4c.5-.6.5-.9.1-1.2a1.39 1.39 0 0 0-1.1-.2l-2.4 2.8-1.2-1.1 3.5-4.2h0zm2.8 6.1c1-1.1 2.7-1.3 3.8-.3l.1.1c1.1 1.1.9 2.5-.2 3.5-.2.2-.4.3-.6.5l-2.4-2.3c-.4.6-.3 1.4.2 1.8.3.3.7.5 1.1.6l-.3 1.1a3.1 3.1 0 0 1-1.8-.9c-1.1-1-1.2-2.7-.2-3.8.1-.2.2-.3.3-.3h0zm3 2c.4-.3.5-.8.2-1.2 0-.1-.1-.1-.1-.2a1.09 1.09 0 0 0-1.5 0l1.4 1.4h0zm5 2.2l.9 1-.5.5h0c.7 0 1.3.3 1.8.8.8.9.5 1.9-.6 2.8l-2.6 2.2-1.1-1.2 2.5-2.1c.6-.5.7-.8.4-1.2-.3-.3-.7-.4-1.1-.4l-2.8 2.4-1.1-1.2 4.2-3.6h0zm1.4 7l2.7-2.1 1 1.3-2.6 2c-.6.5-.7.8-.4 1.2.3.3.7.5 1.1.4l2.9-2.2 1 1.3-4.4 3.4-.8-1.1.5-.6h0c-.7 0-1.4-.3-1.8-.8-.6-1-.3-1.9.8-2.8h0zm6.7 3.1l.8 1.1-.5.5h0c.6 0 1.3.3 1.7.8a1.68 1.68 0 0 1 .2 1.8c.7 0 1.3.3 1.8.8.7 1 .4 1.9-.8 2.7l-2.8 2-1-1.3 2.6-1.9c.6-.5.7-.8.4-1.2-.3-.3-.6-.4-1-.4l-3 2.2-1-1.3 2.6-1.9c.6-.5.7-.8.4-1.2-.3-.3-.6-.4-1-.4l-3 2.2-1-1.3 4.6-3.2h0zm2.6 11.7h0l-.6.2-.8-1 6.2-4.8 1 1.3-1.5 1.2-.7.5c.5.1 1 .4 1.4.8.8 1.1.5 2.4-.9 3.4-1.5 1.2-3.1.9-3.8 0a2.22 2.22 0 0 1-.3-1.6h0zm3 .3c.8-.6 1-1.2.6-1.7-.2-.3-.6-.4-1-.4l-1.8 1.4c0 .3.1.6.3.9.4.4 1 .5 1.9-.2h0zm1.6 2.1c1.1-1.1 2.8-1 3.8 0l.1.1c1 1.2.7 2.5-.5 3.5-.2.2-.4.3-.6.4l-2.2-2.5c-.5.5-.5 1.4.1 1.9.3.3.6.6 1.1.7l-.4 1.1c-.7-.2-1.3-.6-1.8-1.1-1-1.1-.9-2.8.1-3.8.1-.2.2-.2.3-.3h0zm2.8 2.3c.4-.2.6-.8.3-1.2 0-.1-.1-.1-.1-.2-.4-.4-1-.5-1.5-.1l1.3 1.5h0zm3.3.4l.9.9-.6.8h0c.6-.2 1.4-.1 1.9.4.2.1.3.3.4.6l-1.2.8c-.1-.2-.2-.3-.4-.5-.4-.4-1.1-.4-1.6-.1l-2.3 2.2-1.1-1.2 4-3.9zm-76.8-2.2c.3-1.1 1.4-1.4 3.6-1 .1-.4-.1-.8-.5-1h-.1c-.5-.1-1-.1-1.6.1l-.2-1.2c.8-.2 1.7-.2 2.5 0 1.4.4 1.9 1.4 1.4 3l-.9 3-1.3-.4.1-.6h0c-.5.3-1.2.3-1.7.2-.9-.2-1.4-1.1-1.1-1.9-.3-.1-.2-.1-.2-.2h0zm3 .9l.3-.9c-1.2-.2-1.6 0-1.7.4-.1.3.1.6.4.7.3 0 .7 0 1-.2h0 0zm3.1-.2c.8-1.6 2.3-2.1 3.3-1.6.5.2.8.6 1 1.1l.3-.8.8-1.7 1.5.7-3.4 7.1-1.2-.6.1-.6h0a2.21 2.21 0 0 1-1.6 0c-1.3-.7-1.6-2-.8-3.6h0zm2.7 2.5l1-2.1a1.21 1.21 0 0 0-.7-.7c-.5-.2-1.1 0-1.6 1s-.3 1.6.2 1.9c.5.1.9.1 1.1-.1h0zm3.1.3c1-1.5 2.5-1.8 3.5-1.2.4.3.7.7.8 1.2l.4-.7 1-1.6 1.4.9-4.2 6.6-1.1-.7.2-.5h0c-.6.1-1.1.1-1.6-.2-1.2-.9-1.4-2.3-.4-3.8h0zm2.5 2.9l1.2-1.9c-.1-.3-.3-.6-.6-.8-.4-.3-1.1-.1-1.7.8s-.5 1.5 0 1.9c.3.1.7.1 1.1 0h0 0zm4.8-1.3l1.1.8-.5.8h0c.6-.3 1.4-.3 1.9.1.2.1.3.3.4.5l-1.1.9c-.1-.2-.3-.3-.4-.4-.5-.3-1.1-.3-1.6.1l-2 2.5-1.3-1 3.5-4.3h0zm1.5 4.7c.9-1.2 2.6-1.4 3.8-.4l.1.1c1.2 1.1 1 2.4-.1 3.6l-.5.5-2.4-2.2c-.4.6-.3 1.4.3 1.8.3.3.7.5 1.1.5l-.3 1.1c-.7-.1-1.3-.4-1.9-.9-1.1-1-1.3-2.7-.3-3.8.1-.1.1-.2.2-.3h0zm3 2c.4-.3.5-.9.2-1.2 0-.1-.1-.1-.1-.1a1.09 1.09 0 0 0-1.5 0l1.4 1.3zm-.4 3.4l1.2-.2c0 .5.2 1 .6 1.4.3.4.6.4.8.2.3-.2 0-.8-.2-1.3-.4-.7-.4-1.6.2-2.2.8-.7 1.9-.6 2.6.2 0 .1.1.1.1.1.5.5.8 1.2.8 1.9l-1.2.1c0-.4-.2-.8-.5-1.2-.3-.3-.6-.3-.8-.1s0 .7.2 1.3c.5.7.4 1.6-.2 2.2-.7.7-1.8.7-2.9-.4-.3-.6-.6-1.3-.7-2h0zm3.4 3.5l1.2-.1c0 .5.2 1 .5 1.4s.6.4.8.2c.3-.2 0-.8-.2-1.3-.4-.7-.3-1.6.3-2.2.8-.6 1.9-.5 2.6.3 0 .1.1.1.1.1.5.5.7 1.2.8 1.9l-1.2.1c0-.4-.2-.8-.4-1.2-.3-.3-.5-.4-.8-.2s0 .7.2 1.3c.4.7.3 1.6-.3 2.2-.8.7-1.9.6-2.8-.5-.5-.5-.8-1.2-.8-2h0zm89.3-17.1c-.4 0-.8-.1-1.2-.3-10.2-4.8-19.6-11.2-27.8-19-5.2-4.9-9.9-10.3-14.5-15.6l-7.2-8.2c-6-6.6-13.1-12.6-23.1-19.4-1.3-.9-1.6-2.6-.7-3.9s2.6-1.6 3.9-.7c6.9 4.8 15.9 11.4 24 20.2 2.5 2.7 4.9 5.6 7.3 8.3 4.5 5.2 9.1 10.5 14.1 15.2a104.95 104.95 0 0 0 26.3 18c1.4.7 2 2.3 1.3 3.7-.3 1.1-1.3 1.7-2.4 1.7h0z"/></g><path d="M185 141.1l.9-25.8-12.6-17.5-2.2 3.7 3.7 13.5 2.1-3.2-8.1-8-12.9 14.7 18 24.5z" class="c"/><path d="M168.9 140.4l21.1-5.7c2.2 5.6 6.6 17.4 12.9 30.8 3.2 6.7 7 13.8 11.3 19.9.5.8 1.1 1.5 1.6 2.2.6.9.9 1.1 1.1 1.3.5.4 1.1.8 1.6 1.2 1.1.6 2.2 1 3.3.9s2.1-.9 2.6-1.7c.6-.8.9-1.7 1.1-2.4l.1-.3c.1-.2.3-.5.5-.9l1.1-2.1c.8-1.4 1.5-2.9 2.2-4.4 1.4-3 2.6-6.1 3.8-9 4.5-11.9 7.1-21.6 8.1-24.7l.3-.9c2.6-9.2 12.1-14.9 22.3-15.1 2.3-.1 4.7.2 7.1.8h0 0c2.4.6 4.6 1.6 6.6 2.9 8.7 5.4 13.5 16.6 9.5 26.9l-.3 1c-1.3 3.6-5.4 14.1-13.2 28.2-2 3.5-4.2 7.3-6.8 11.2-1.3 2-2.7 4-4.2 6-.8 1-1.6 2.1-2.4 3.1l-1.4 1.7c-.6.8-1.2 1.5-1.9 2.3-5.2 6-11.3 11.2-18.2 14.4s-14.8 4.3-22.2 2.5-13.9-6.2-19.2-11.8c-2.6-2.8-4.9-5.9-7-9.1-1-1.6-2-3.3-2.6-4.4l-1.8-3.6c-4.5-9.4-7.3-18.3-9.5-26.3-4.4-15.8-6.5-28.6-7.5-34.9h0z"/><path d="M269.1 73.1s8.5.9 13.6-5.7" stroke="#ca9d7c" class="V W Y Z"/><path d="M268 45.2l-4.7 18.5h10.1" class="c"/><path d="M273.4 64.6h-11.2l4.9-19.7c.1-.5.6-.8 1.1-.7s.8.6.7 1.1l-4.4 17.4h8.9c.5 0 .9.4.9.9 0 .6-.4 1-.9 1h0z" fill="#ca9d7c"/><path d="M266.7 132.3l8.9-12.9 9.3 19 34.3-33" stroke="#333" class="V W Y"/><path d="M348 143.1c-.4-27.5-23.1-49.4-50.6-49s-49.4 23.1-49 50.6l1.6 98.2h99.6l-1.6-99.8h0zm-172.8-4.4c1.1 4.6 2.3 6.6 5.7 7h22a4.91 4.91 0 0 0 4.9-4.9l-12.1-49.1c-.6-3.2-2.2-5.5-4.9-5.5h-22a4.91 4.91 0 0 0-4.9 4.9c.1 0 10.6 44.6 11.3 47.6h0z"/><path d="M201.8 143.7c.5 0 .9-.4.9-.9s-.4-.9-.9-.9l-18.6-.2c-2.8-.2-3.8-2.4-4.5-5.6-.3-1.5-10.7-42.4-11.1-44.2a.8.8 0 0 0-1.1-.6c-.5.1-.7.6-.6 1.1l11.1 44.1c.4 2.2 1.3 6.7 6.1 7l18.7.2h0 0z" fill="#fff"/><path d="M193.3 90.2h-24.4l11.8 47.2h24.8z" class="a"/><path d="M252.8 91.4L219 94.8l.7 3.1 14.5 1.1 6.2 12.4 14.5 1.7 11 10.7 8.6-7.6z" class="c"/><path d="M253 158.6l9.1-1-1.7 36.9-9.2 7.1zm31 0h35.9v36l-19.4 9.3-16.5-9.7z" stroke="#333" class="V W Y"/><path d="M346 128.7c.2.6.2 1 .3 1.4l.3 1.2.5 2.4.9 4.8 1.5 9.6c.9 6.4 1.6 13 1.9 19.8.2 3.4.3 6.9.2 10.6s-.2 7.5-.8 11.8-1.4 9-3.9 14.9c-1.3 3-3.1 6.4-6.1 9.9s-7.5 6.9-12.4 8.6l-1.5.5c-3.9 1-8.1 1.8-12.6 1.9s-9.2-.4-13.7-1.7-8.6-3.3-12.2-5.6c-3.6-2.4-6.7-5-9.3-7.8-5.2-5.5-8.7-11.3-11.6-16.9s-5-11.2-6.8-16.7c-3.5-11-5.7-21.8-7.3-32.5-.8-5.4-1.4-10.7-1.9-16l-.6-8-.2-4-.2-4.2 23.3-2.1s2.5 16.8 7 28.8c2.6 9.2 8.2 17.6 12 25.6 1.9 4 4 7.8 6.2 11s4.6 5.9 6.7 7.4c1 .8 2 1.3 2.8 1.6s1.3.3 1.8.2a11.31 11.31 0 0 0 1.5-.4c.6-.2 1.4-.5 2.4-1l-1.5.5c-2.2.6-4.4 2.2-5.5 3.4-1.2 1.2-1.7 2-1.9 2.2-.5.5-.5-.7-.8-2.2-.5-3.1 10.1-12.2 8.7-16.9-1.4-4.6 1.9-30.1 0-34.9-1-2.4 17.6 1.6 17.6 1.6l15.2-8.8h0z"/><path d="M346.4 206.4s-4.4 15.2-26.5 19.3c-34.5 6.3-52.5-31.6-52.5-31.6m26.6-23c3.5 7.8 8.6 14.6 14.7 10.1 6.6-4.9 4.3-33.6 4.3-33.6" stroke="#333" class="V W Y Z"/><path d="M278.1 57.1V80l-8.9 5.5h8.9l2 32.2L313 95.6l.9-38.5z" fill="#ecab80"/><path d="M290.5 78l-26.3 8 4.5-23.9v-36a22.58 22.58 0 1 1 45.2 0v30.8l-15.9-.6v11.3c0 5.5-2 8.4-7.5 10.4" class="X"/><path d="M268.2 19.3s2.1-16.5 24.3-16.5 24.3 17.1 25.2 23.4c1.1 8.1 15.3 39.7-11.1 37.6l-4.5-17.4-2.1 4.5h-8.7s-.9-6.9 2.4-17.4.9-17.1-7.5-15.6c-8.4 1.4-13.5 3.5-18 1.4" fill="#333"/><g class="X"><path d="M291.2 48.1c-.5 6.4 5 15.9-1.6 20.2-6.6 4.2-11.7-8.6-22.2-4.4l-4.5 23.5s21.6-5.9 26.1-7.7 12.6-5.2 10.3-11.5c-2-5.3-2.8-12.2-1.3-22.4l-6.8 2.3h0z"/><path d="M262.9 87.4l16.6 2s9.2-7.4 14-10.3c6.7-4 7-7.1 5.8-10.6-1.1-3-36.4 18.9-36.4 18.9"/></g><defs><path id="G" d="M262.9 45.8h37v43.5h-37z"/></defs><clipPath id="H"><use xlink:href="#G"/></clipPath><g clip-path="url(#H)"><path d="M299.6 69.6l-.3-1.3c-2-5.3-2-12.2-.5-22.4l-7.6 3.1c-.5 6.4 5 15.1-1.6 19.3s-11.7-8.6-22.2-4.4l-4.5 23.5 16.6 2s9.2-7.4 14-10.3c6-3.6 6.9-6.5 6.1-9.5" fill="#e0e0e0"/></g><use xlink:href="#B" class="X"/><use xlink:href="#B" stroke="#ecab80" stroke-width="1.8" class="V W Z"/><path d="M320.3 35.7h-51.5v8.8c4.8.4 6.7 2.8 6.7 2.8h47.2c-.2-2.5-1.3-7.3-2.4-11.6" fill="#1b1b1b"/><use xlink:href="#C" class="X"/><use xlink:href="#C" stroke="#ecab80" stroke-width="1.8" class="V W Z"/><path d="M268.7,44.5c3.6,4.6,9.2,7.6,15.6,7.6c6.3,0,12-3,15.6-7.6H268.7z" fill="#1b1b1b"/><path d="M281.3 46.8a6.7 6.7 0 0 0 6.7-6.7h-13.4a6.7 6.7 0 0 0 6.7 6.7" class="X"/><path d="M275 100.1l3.9 20.5 39-24.5-4.9-12.2zm-14.9-73.5s-4.9 6.5-14.5 11.7c-1.6.8-1.1 3.2.6 3.4 15.4 2 45.8-5.2 55.4-15.8-17.9-7.9-41-1.1-41-1.1l-.5 1.8h0z"/><path d="M287.5 31c-13.9 2.4-23.4 2.8-29.7 2.3-6.5-.5-11.3-6.1-10.6-12.6v-.3c.6-5.8 5.4-10.3 11.3-10.4 7.9-.1 17.8-1.1 24.9-2.5 7.2-1.1 16.9-3.5 24.4-6.1 5.5-1.9 11.6.7 14.1 5.9l.1.2c2.8 5.9.2 12.9-5.7 15.5s-14.9 5.6-28.8 8"/><path d="M288.7 8.7l-12.5 2.7c-2.2.5-4.4-.9-4.8-3.1l-.1-.6c-.5-2.2.9-4.4 3.1-4.8L286.9.2c2.2-.5 4.4.9 4.8 3.2l.1.6c.5 2.1-.9 4.2-3.1 4.7"/></svg>